<?xml version="1.0" standalone="no"?>
<!DOCTYPE svg PUBLIC "-//W3C//DTD SVG 20010904//EN"
 "http://www.w3.org/TR/2001/REC-SVG-20010904/DTD/svg10.dtd">
<svg version="1.0" xmlns="http://www.w3.org/2000/svg"
 width="626.000000pt" height="626.000000pt" viewBox="0 0 626.000000 626.000000"
 preserveAspectRatio="xMidYMid meet">

<g transform="translate(0.000000,626.000000) scale(0.100000,-0.100000)"
fill="#000000" stroke="none">
<path d="M3078 4663 c6 -2 18 -2 25 0 6 3 1 5 -13 5 -14 0 -19 -2 -12 -5z"/>
<path d="M3198 4663 c6 -2 18 -2 25 0 6 3 1 5 -13 5 -14 0 -19 -2 -12 -5z"/>
<path d="M3277 4649 c7 -7 15 -10 18 -7 3 3 -2 9 -12 12 -14 6 -15 5 -6 -5z"/>
<path d="M3310 4636 c0 -3 9 -10 20 -16 11 -6 20 -8 20 -6 0 3 -9 10 -20 16
-11 6 -20 8 -20 6z"/>
<path d="M3397 4576 c63 -55 87 -92 73 -113 -10 -16 -11 -16 -6 -1 3 10 1 20
-4 23 -6 4 -10 -8 -10 -27 0 -59 -13 -64 -54 -20 -21 22 -44 48 -51 58 -8 11
-15 14 -15 8 0 -5 13 -23 29 -38 16 -16 35 -41 41 -57 7 -16 16 -27 20 -24 5
3 6 -5 2 -17 -3 -11 -1 -19 4 -15 5 3 8 -26 6 -68 l-3 -73 -37 -6 c-20 -3 -77
-7 -127 -8 l-90 -2 105 -6 105 -6 -117 -2 c-101 -2 -121 -5 -137 -21 -11 -11
-30 -21 -42 -23 -15 -2 -25 -12 -29 -28 -4 -18 -13 -26 -33 -28 -16 -2 -34
-14 -43 -28 -9 -13 -32 -31 -50 -40 -27 -13 -34 -22 -34 -46 0 -26 3 -29 28
-28 46 3 58 -1 28 -10 -16 -5 -40 -7 -55 -4 -14 3 -44 1 -66 -4 -42 -10 -35
-11 138 -14 20 -1 24 -3 15 -9 -8 -5 -9 -9 -2 -9 7 0 34 -20 62 -45 27 -24 52
-41 56 -38 4 4 4 -1 0 -11 -6 -15 -4 -17 6 -11 8 5 11 4 7 -2 -4 -6 0 -30 9
-54 39 -109 -24 -252 -135 -308 -82 -43 -202 -32 -268 23 l-28 23 -75 -24
c-115 -37 -269 -116 -360 -184 -82 -62 -170 -165 -170 -198 0 -12 2 -13 9 -3
12 19 19 -14 11 -53 -3 -18 -1 -34 6 -40 6 -5 15 -23 19 -40 l6 -29 -23 19
-23 20 19 -23 c11 -12 26 -20 33 -18 7 3 12 0 10 -6 -1 -6 25 -22 58 -35 33
-14 61 -26 62 -27 1 -1 -4 -65 -12 -141 -8 -77 -15 -152 -15 -167 l0 -28 904
0 904 0 -4 38 c-6 49 -54 555 -54 565 0 5 -13 -1 -30 -13 -48 -34 -180 -90
-266 -113 -74 -20 -84 -26 -115 -67 -49 -64 -123 -100 -205 -100 -78 0 -126
19 -177 68 -61 58 -81 106 -82 187 0 60 4 78 31 125 52 92 162 148 260 133 41
-6 108 -36 135 -60 34 -29 309 93 451 200 85 63 128 112 158 178 52 116 1 192
-163 240 l-75 22 -11 126 c-6 69 -14 141 -17 159 l-5 32 -173 0 -173 0 -5 88
c-4 63 -12 102 -31 144 -26 58 -94 141 -131 160 -12 6 -2 -6 21 -26z m92 -150
c-14 -15 -22 0 -13 26 7 22 7 22 14 3 4 -11 4 -24 -1 -29z m493 -615 c113 -49
120 -128 19 -225 -29 -28 -42 -35 -45 -25 -4 13 -26 230 -26 257 0 15 1 15 52
-7z m185 -103 c-3 -7 -5 -2 -5 12 0 14 2 19 5 13 2 -7 2 -19 0 -25z m-1860
-605 c-4 -27 -10 -85 -13 -130 -4 -46 -11 -83 -17 -83 -5 0 -24 9 -42 20 -41
25 -57 67 -44 113 9 32 93 127 112 127 6 0 7 -20 4 -47z"/>
<path d="M2879 4563 l-24 -28 28 24 c25 23 32 31 24 31 -2 0 -14 -12 -28 -27z"/>
<path d="M3100 4564 c36 -7 139 -10 128 -2 -7 4 -42 7 -78 7 -36 -1 -58 -3
-50 -5z"/>
<path d="M2944 4478 l-29 -33 33 29 c17 17 32 31 32 33 0 8 -8 1 -36 -29z"/>
<path d="M2886 4395 c-9 -26 -7 -32 5 -12 6 10 9 21 6 23 -2 3 -7 -2 -11 -11z"/>
<path d="M2763 4235 c0 -33 2 -45 4 -27 2 18 2 45 0 60 -2 15 -4 0 -4 -33z"/>
<path d="M2862 4255 c0 -16 2 -22 5 -12 2 9 2 23 0 30 -3 6 -5 -1 -5 -18z"/>
<path d="M2412 4180 c0 -14 2 -19 5 -12 2 6 2 18 0 25 -3 6 -5 1 -5 -13z"/>
<path d="M2403 4070 c0 -25 2 -35 4 -22 2 12 2 32 0 45 -2 12 -4 2 -4 -23z"/>
<path d="M2392 3975 c0 -16 2 -22 5 -12 2 9 2 23 0 30 -3 6 -5 -1 -5 -18z"/>
<path d="M2383 3860 c0 -25 2 -35 4 -22 2 12 2 32 0 45 -2 12 -4 2 -4 -23z"/>
<path d="M2730 3880 c-9 -6 -10 -10 -3 -10 6 0 15 5 18 10 8 12 4 12 -15 0z"/>
<path d="M2686 3841 c-10 -11 -24 -17 -31 -15 -9 4 -12 -3 -11 -20 0 -14 3
-22 6 -18 3 4 18 22 34 40 17 17 27 32 24 32 -3 0 -13 -9 -22 -19z"/>
<path d="M2373 3760 c0 -25 2 -35 4 -22 2 12 2 32 0 45 -2 12 -4 2 -4 -23z"/>
<path d="M2830 3787 c-19 -7 -35 -17 -35 -24 0 -6 -4 -15 -9 -20 -5 -5 -6 -3
-2 5 4 6 3 12 -3 12 -5 0 -19 -20 -31 -45 -80 -166 152 -289 251 -133 38 62
11 165 -52 194 -41 20 -82 24 -119 11z"/>
<path d="M2534 3750 c-34 -10 -70 -23 -80 -30 -18 -11 -18 -11 1 -4 11 4 58
17 105 30 47 13 74 23 60 23 -14 0 -53 -9 -86 -19z"/>
<path d="M2397 3699 c-9 -5 -22 -7 -27 -4 -6 3 -10 -1 -10 -10 0 -14 3 -14 33
1 17 9 34 18 36 20 9 8 -15 3 -32 -7z"/>
<path d="M3309 3180 c-50 -26 -73 -74 -67 -139 15 -150 217 -179 273 -39 51
128 -82 244 -206 178z"/>
<path d="M2083 3000 c0 -25 2 -35 4 -22 2 12 2 32 0 45 -2 12 -4 2 -4 -23z"/>
<path d="M2035 2240 c-54 -28 -78 -63 -82 -124 -5 -65 19 -113 73 -143 73 -42
166 -22 211 46 30 44 29 49 -9 53 -27 2 -39 -4 -65 -31 -28 -29 -37 -33 -65
-27 -43 8 -78 48 -78 89 0 88 108 126 154 54 13 -18 23 -23 46 -19 41 6 43 14
17 53 -44 66 -128 86 -202 49z"/>
<path d="M3060 2249 c-88 -37 -125 -138 -79 -219 58 -103 199 -106 273 -7 15
20 20 43 20 82 0 58 -17 91 -66 128 -31 23 -111 32 -148 16z m117 -81 c66 -61
6 -174 -81 -152 -53 13 -83 84 -55 135 13 26 68 50 94 42 11 -3 30 -14 42 -25z"/>
<path d="M3485 2248 c-31 -17 -45 -39 -45 -74 0 -41 19 -60 73 -74 72 -19 82
-22 95 -32 6 -6 12 -20 12 -33 0 -59 -91 -76 -142 -25 -30 31 -48 38 -48 19 0
-41 57 -79 117 -79 78 0 129 60 101 118 -13 26 -24 31 -128 63 -34 11 -46 19
-48 37 -9 63 86 86 131 33 28 -34 57 -28 38 8 -24 43 -109 65 -156 39z"/>
<path d="M4052 2244 c-99 -51 -109 -202 -18 -267 43 -30 132 -31 173 -1 87 65
88 192 1 257 -36 27 -114 32 -156 11z m128 -30 c81 -48 80 -178 -2 -220 -45
-24 -103 -13 -142 25 -27 27 -31 38 -31 85 0 44 5 59 25 81 43 47 100 58 150
29z"/>
<path d="M1380 2220 c0 -29 1 -30 50 -30 l50 0 0 -115 0 -115 35 0 35 0 0 115
0 115 45 0 c43 0 45 1 45 30 l0 30 -130 0 -130 0 0 -30z"/>
<path d="M1680 2105 l0 -145 115 0 115 0 0 30 0 30 -81 0 -80 0 3 28 c3 26 5
27 76 30 69 3 72 4 72 27 0 23 -3 24 -72 27 -71 3 -73 4 -76 31 l-3 27 80 0
81 0 0 30 0 30 -115 0 -115 0 0 -145z"/>
<path d="M2300 2105 l0 -145 35 0 34 0 3 58 3 57 63 3 62 3 0 -61 0 -60 35 0
35 0 0 145 0 145 -35 0 -35 0 0 -55 0 -55 -65 0 -65 0 0 55 0 55 -35 0 -35 0
0 -145z"/>
<path d="M2630 2105 l0 -145 35 0 35 0 0 81 c0 44 4 79 8 77 5 -1 39 -38 76
-80 55 -64 73 -78 97 -78 l29 0 0 145 0 145 -35 0 -34 0 6 -85 c3 -48 2 -85
-3 -85 -5 0 -40 38 -79 85 -61 74 -74 85 -102 85 l-33 0 0 -145z"/>
<path d="M3680 2240 c0 -5 26 -10 58 -12 l57 -3 3 -132 c2 -108 5 -133 17
-133 12 0 15 25 17 133 l3 132 53 0 c35 0 52 4 52 13 0 9 -33 12 -130 12 -75
0 -130 -4 -130 -10z"/>
<path d="M4340 2105 c0 -120 2 -145 15 -145 10 0 15 16 17 62 3 60 4 61 32 63
23 1 38 -11 83 -62 33 -37 63 -63 75 -63 16 0 11 11 -31 59 -28 32 -51 61 -51
65 0 3 10 6 23 6 74 0 100 99 38 147 -10 8 -52 12 -108 13 l-93 0 0 -145z
m191 96 c25 -30 24 -37 -6 -67 -22 -22 -32 -25 -88 -22 l-62 3 -3 44 c-5 70
-1 74 74 69 55 -3 70 -8 85 -27z"/>
<path d="M4645 2105 l0 -145 108 0 c79 0 107 3 107 13 0 9 -23 11 -90 9 l-90
-3 0 55 0 56 85 0 c69 0 85 3 85 15 0 12 -16 15 -85 15 l-85 0 0 55 0 55 90 0
c53 0 90 4 90 10 0 6 -43 10 -107 10 l-108 0 0 -145z"/>
<path d="M1550 1813 c0 -3 14 -30 30 -60 17 -29 30 -66 30 -83 0 -23 4 -30 20
-30 15 0 20 7 20 24 0 14 16 52 35 85 41 69 41 71 16 71 -12 0 -28 -16 -44
-42 l-25 -42 -21 42 c-14 28 -28 42 -41 42 -11 0 -20 -3 -20 -7z"/>
<path d="M1791 1803 c-31 -26 -42 -73 -26 -111 16 -37 42 -52 90 -52 79 0 117
101 59 155 -32 30 -91 34 -123 8z m97 -35 c21 -21 14 -66 -13 -84 -23 -15 -27
-15 -50 0 -17 11 -25 26 -25 44 0 35 16 52 50 52 14 0 31 -5 38 -12z"/>
<path d="M2000 1752 c0 -59 3 -72 23 -90 31 -29 87 -29 113 -1 13 15 20 40 22
90 4 65 3 69 -17 69 -19 0 -21 -6 -21 -58 0 -44 -5 -63 -18 -75 -23 -21 -27
-21 -46 -1 -11 10 -16 34 -16 75 0 52 -2 59 -20 59 -18 0 -20 -7 -20 -68z"/>
<path d="M2220 1730 c0 -83 1 -90 20 -90 16 0 20 7 20 30 0 17 4 30 8 30 5 0
21 -13 37 -30 17 -18 39 -30 54 -30 l25 0 -29 30 -29 30 22 16 c30 20 29 68 0
88 -14 10 -44 16 -75 16 l-53 0 0 -90z m110 30 c0 -16 -7 -20 -35 -20 -28 0
-35 4 -35 20 0 16 7 20 35 20 28 0 35 -4 35 -20z"/>
<path d="M2536 1804 c-19 -19 -21 -58 -3 -72 6 -6 27 -14 46 -19 19 -5 36 -14
39 -21 6 -18 -27 -26 -52 -12 -13 6 -32 10 -42 8 -18 -3 -17 -5 4 -26 43 -43
132 -25 132 27 0 34 -13 46 -59 58 -19 5 -36 14 -39 21 -6 19 27 26 46 10 17
-15 52 -13 52 2 0 17 -45 40 -77 40 -17 0 -39 -7 -47 -16z"/>
<path d="M2720 1730 l0 -90 65 0 c58 0 65 2 65 20 0 17 -7 20 -45 20 l-45 0 0
70 c0 63 -2 70 -20 70 -19 0 -20 -7 -20 -90z"/>
<path d="M2933 1805 c-12 -8 -26 -30 -33 -49 -21 -63 21 -116 93 -116 84 0
120 100 56 154 -35 30 -83 34 -116 11z m95 -37 c21 -21 14 -66 -12 -83 -28
-19 -58 -9 -76 26 -25 45 51 94 88 57z"/>
<path d="M3159 1791 c-37 -37 -38 -79 -3 -120 21 -26 33 -31 67 -31 45 1 67
13 85 47 23 43 16 53 -38 53 -38 0 -50 -4 -50 -15 0 -9 9 -15 25 -15 30 0 33
-15 6 -30 -28 -14 -38 -13 -61 10 -24 24 -26 53 -4 74 18 18 65 21 80 6 14
-14 44 -2 38 14 -7 18 -49 36 -85 36 -20 0 -40 -10 -60 -29z"/>
<path d="M3426 1811 c-3 -5 -21 -45 -41 -90 l-34 -81 23 0 c13 0 26 7 30 15 3
10 19 15 45 15 25 0 41 -5 45 -15 3 -8 15 -15 27 -15 14 0 19 5 16 14 -46 118
-71 166 -87 166 -11 0 -21 -4 -24 -9z m34 -60 c0 -5 3 -16 6 -25 4 -12 0 -16
-15 -16 -22 0 -25 8 -15 34 7 17 24 22 24 7z"/>
<path d="M3590 1730 c0 -83 1 -90 20 -90 17 0 20 7 20 53 l1 52 47 -53 c70
-78 82 -72 82 38 0 83 -1 90 -20 90 -17 0 -20 -7 -20 -50 0 -27 -3 -50 -7 -50
-5 1 -26 23 -48 50 -22 28 -48 50 -57 50 -16 0 -18 -11 -18 -90z"/>
<path d="M3910 1730 c0 -83 1 -90 20 -90 16 0 20 7 20 35 0 34 1 35 40 35 39
0 40 -1 40 -35 0 -28 4 -35 20 -35 19 0 20 7 20 90 0 83 -1 90 -20 90 -16 0
-20 -7 -20 -35 0 -34 -1 -35 -40 -35 -39 0 -40 1 -40 35 0 28 -4 35 -20 35
-19 0 -20 -7 -20 -90z"/>
<path d="M4130 1730 l0 -90 70 0 c60 0 70 3 70 18 0 14 -9 17 -47 17 -36 0
-48 4 -48 15 0 10 13 16 43 18 34 3 42 7 42 23 0 16 -7 19 -40 19 -29 0 -40 4
-40 15 0 11 12 15 45 15 38 0 45 3 45 20 0 18 -7 20 -70 20 l-70 0 0 -90z"/>
<path d="M4330 1730 c0 -83 1 -90 20 -90 16 0 20 7 20 30 0 17 4 30 8 30 5 0
21 -13 37 -30 17 -18 39 -30 54 -30 l25 0 -29 30 -29 30 22 16 c30 20 29 68 0
88 -14 10 -44 16 -75 16 l-53 0 0 -90z m110 30 c0 -16 -7 -20 -35 -20 -28 0
-35 4 -35 20 0 16 7 20 35 20 28 0 35 -4 35 -20z"/>
<path d="M4540 1730 l0 -90 70 0 c54 0 70 3 70 14 0 11 -14 16 -47 18 -36 2
-49 7 -51 21 -3 14 4 17 42 17 39 0 46 3 46 20 0 17 -7 20 -45 20 -33 0 -45 4
-45 14 0 11 14 16 47 18 36 2 49 7 51 21 3 15 -5 17 -67 17 l-71 0 0 -90z"/>
</g>
</svg>
